<svg viewBox="0 0 2500 1686" xmlns="http://www.w3.org/2000/svg" style="font-family:'Noto Sans Thai','Noto Sans','Noto Sans Lao','Noto Sans Myanmar','Noto Sans Khmer','Noto Sans SC',sans-serif">
  <rect width="2500" height="1686" fill="#ffffff"/>
  <rect x="16" y="16" width="2468" height="700" rx="28" fill="#E8F1FC"/>
  <text x="90" y="330" font-size="210" font-weight="800" fill="#1E3A5F">เข้างาน</text>
  <rect x="98" y="392" width="430" height="8" rx="4" fill="#2D6CDF"/><circle cx="320" cy="396" r="13" fill="#2D6CDF"/>
  <text x="98" y="500" font-size="58" fill="#4B6B93">Check-in · ចុះម៉ោង · ລົງເວລາ · 打卡 · အချိန်မှတ်</text>
  <rect x="1980" y="120" width="300" height="470" rx="46" fill="#34507A"/><rect x="2008" y="158" width="244" height="394" rx="20" fill="#DCE9F8"/>
  <circle cx="2130" cy="330" r="120" fill="#2D6CDF"/><path d="M2076 332 l38 40 l72 -86" fill="none" stroke="#fff" stroke-width="26" stroke-linecap="round" stroke-linejoin="round"/>
  <rect x="16" y="732" width="806" height="938" rx="28" fill="#FBF1E8"/>
  <rect x="330" y="850" width="180" height="220" rx="18" fill="#fff" stroke="#E08A2B" stroke-width="10"/><rect x="378" y="828" width="84" height="40" rx="12" fill="#E08A2B"/>
  <rect x="368" y="930" width="104" height="14" rx="7" fill="#E0BFA0"/><rect x="368" y="978" width="104" height="14" rx="7" fill="#E0BFA0"/>
  <text x="420" y="1320" font-size="150" font-weight="800" fill="#7A4A12" text-anchor="middle">ขอลา</text>
  <text x="420" y="1430" font-size="40" fill="#9A7A52" text-anchor="middle">Leave · សុំច្បាប់ · ຂໍລາ</text>
  <text x="420" y="1490" font-size="40" fill="#9A7A52" text-anchor="middle">请假 · ခွင့်တောင်း</text>
  <rect x="846" y="732" width="806" height="938" rx="28" fill="#E9F6EE"/>
  <rect x="1160" y="858" width="180" height="150" rx="22" fill="#2EA86A"/><rect x="1160" y="892" width="180" height="116" rx="18" fill="#34BD78"/><circle cx="1330" cy="950" r="30" fill="#F2C94C"/>
  <text x="1249" y="1320" font-size="150" font-weight="800" fill="#14532D" text-anchor="middle">ขอเบิก</text>
  <text x="1249" y="1430" font-size="40" fill="#3E7A57" text-anchor="middle">Advance · បើកប្រាក់ · ເບີກເງິນ</text>
  <text x="1249" y="1490" font-size="40" fill="#3E7A57" text-anchor="middle">预支 · ကြိုတင်ထုတ်</text>
  <rect x="1676" y="732" width="808" height="938" rx="28" fill="#F1ECFB"/>
  <rect x="1990" y="852" width="180" height="170" rx="18" fill="#fff" stroke="#7C5BD6" stroke-width="10"/><rect x="1990" y="852" width="180" height="46" rx="10" fill="#7C5BD6"/>
  <circle cx="2030" cy="950" r="10" fill="#7C5BD6"/><circle cx="2080" cy="950" r="10" fill="#C9B8EE"/><circle cx="2130" cy="950" r="10" fill="#C9B8EE"/>
  <text x="2080" y="1320" font-size="150" font-weight="800" fill="#3A2A6B" text-anchor="middle">ปฏิทิน</text>
  <text x="2080" y="1430" font-size="40" fill="#6A5A93" text-anchor="middle">Calendar · ប្រតិទិន · ປະຕິທິນ</text>
  <text x="2080" y="1490" font-size="40" fill="#6A5A93" text-anchor="middle">日历 · ပြက္ခဒိန်</text>
</svg>